<svg width="38" height="34" viewBox="0 0 38 34" fill="none" xmlns="http://www.w3.org/2000/svg">
<path d="M36.9054 18.0312C38.2699 16.6668 38.2699 14.4545 36.9054 13.0901L25.259 1.44369C23.8946 0.0792413 21.6824 0.0791686 20.3178 1.44369L1.68357 20.0779C0.31912 21.4424 0.31912 23.6546 1.68357 25.0191L8.67141 32.0069C9.32668 32.6621 10.2154 33.0302 11.1421 33.0303H37.0553C37.5377 33.0303 37.9288 32.6392 37.9288 32.1568V29.2452C37.9288 28.7628 37.5377 28.3717 37.0553 28.3717H26.565L36.9054 18.0312V18.0312ZM14.8772 13.4726L24.8766 23.472L19.9768 28.3717H11.6245L5.8013 22.5485L14.8772 13.4726V13.4726Z" fill="#7D8EBB"/>
</svg>
