<svg width="37" height="36" viewBox="0 0 37 36" fill="none" xmlns="http://www.w3.org/2000/svg">
<path d="M35.2155 10.1322L32.0056 13.3421C31.6784 13.6693 31.1492 13.6693 30.822 13.3421L23.0932 5.61333C22.766 5.28608 22.766 4.75691 23.0932 4.42965L26.3031 1.21979C27.6051 -0.0822564 29.7218 -0.0822564 31.0308 1.21979L35.2155 5.40445C36.5245 6.7065 36.5245 8.8232 35.2155 10.1322ZM20.336 7.18693L2.05158 25.4713L0.575457 33.9311C0.373535 35.073 1.36922 36.0618 2.51112 35.8668L10.971 34.3837L29.2553 16.0993C29.5826 15.7721 29.5826 15.2429 29.2553 14.9157L21.5266 7.18693C21.1924 6.85968 20.6632 6.85968 20.336 7.18693V7.18693ZM9.18847 23.9047C8.80551 23.5217 8.80551 22.909 9.18847 22.526L19.9112 11.8033C20.2942 11.4203 20.9069 11.4203 21.2899 11.8033C21.6728 12.1862 21.6728 12.799 21.2899 13.1819L10.5671 23.9047C10.1842 24.2876 9.57143 24.2876 9.18847 23.9047V23.9047ZM6.67489 29.7604H10.017V32.2879L5.52602 33.0747L3.36059 30.9093L4.14739 26.4183H6.67489V29.7604Z" fill="#7D8EBB"/>
</svg>
