<svg width="37" height="33" viewBox="0 0 37 33" fill="none" xmlns="http://www.w3.org/2000/svg">
<g clip-path="url(#clip0)">
<path d="M32.9116 20.5549C32.9116 20.5549 28.8663 26.4569 28.8663 28.7088C28.8663 30.9607 30.6779 32.7858 32.9116 32.7858C35.1454 32.7858 36.957 30.9607 36.957 28.7088C36.957 26.4569 32.9116 20.5549 32.9116 20.5549ZM32.3194 13.9974L19.1916 0.767012C18.7965 0.368872 18.2789 0.17012 17.7612 0.17012C17.2435 0.17012 16.7258 0.368872 16.3314 0.767012L11.1748 5.96386L5.72752 0.473344C5.33247 0.0752036 4.69216 0.0752036 4.29774 0.473344L2.86796 1.91429C2.47354 2.31243 2.47354 2.95774 2.86796 3.35524L8.31591 8.84512L2.32626 14.8816C-0.0434269 17.2691 -0.0434269 21.141 2.32626 23.5292L9.73368 30.9945C10.9182 32.1882 12.4712 32.7858 14.0237 32.7858C15.5767 32.7858 17.1291 32.1889 18.3136 30.9945L32.3188 16.8799C33.1089 16.0836 33.1089 14.7937 32.3194 13.9974ZM24.9733 18.5183H4.71618C4.80215 18.2737 4.94184 18.01 5.18582 17.7647L6.01702 16.927L11.1755 11.7283L14.8795 15.4613C15.669 16.2569 16.9496 16.2569 17.7391 15.4613C18.5285 14.6656 18.5285 13.375 17.7391 12.5794L14.035 8.84639L17.7612 5.09113L28.0288 15.439L24.9733 18.5183Z" fill="#7D8EBB"/>
</g>
<defs>
<clipPath id="clip0">
<rect width="36.4082" height="32.6156" fill="white" transform="translate(0.547623 0.170105)"/>
</clipPath>
</defs>
</svg>
